<?xml version="1.0" encoding="utf-8"?>
<!-- Generator: Adobe Illustrator 25.2.1, SVG Export Plug-In . SVG Version: 6.00 Build 0)  -->
<svg version="1.1"
	 id="Layer_1" inkscape:version="0.92.3 (2405546, 2018-03-11)" sodipodi:docname="kornai_logo.svg" xmlns:cc="http://creativecommons.org/ns#" xmlns:dc="http://purl.org/dc/elements/1.1/" xmlns:inkscape="http://www.inkscape.org/namespaces/inkscape" xmlns:rdf="http://www.w3.org/1999/02/22-rdf-syntax-ns#" xmlns:sodipodi="http://sodipodi.sourceforge.net/DTD/sodipodi-0.dtd" xmlns:svg="http://www.w3.org/2000/svg"
	 xmlns="http://www.w3.org/2000/svg" xmlns:xlink="http://www.w3.org/1999/xlink" x="0px" y="0px" viewBox="0 0 1006.6 264"
	 style="enable-background:new 0 0 1006.6 264;" xml:space="preserve">
<style type="text/css">
	.st0{enable-background:new    ;}
	.st1{fill:#3980F5;}
	.st2{fill:#30C730;}
	.st3{fill:#F01616;}
</style>
<sodipodi:namedview  bordercolor="#666666" borderopacity="1" gridtolerance="10" guidetolerance="10" id="namedview4162" inkscape:current-layer="g4285" inkscape:cx="256.09235" inkscape:cy="-4.3199171" inkscape:guide-bbox="true" inkscape:measure-end="63.1753,74" inkscape:measure-start="5.39155e-06,112.499" inkscape:pageopacity="0" inkscape:pageshadow="2" inkscape:snap-text-baseline="true" inkscape:window-height="713" inkscape:window-maximized="1" inkscape:window-width="1299" inkscape:window-x="67" inkscape:window-y="27" inkscape:zoom="1.4142136" objecttolerance="10" pagecolor="#ffffff" showgrid="false" showguides="true">
	
		<sodipodi:guide  id="guide1151" inkscape:color="rgb(0,0,255)" inkscape:label="" inkscape:locked="false" orientation="0,1" position="188.0904,85">
		</sodipodi:guide>
	
		<sodipodi:guide  id="guide1153" inkscape:color="rgb(0,0,255)" inkscape:label="" inkscape:locked="false" orientation="1,0" position="610,19.979676">
		</sodipodi:guide>
	<sodipodi:guide  id="guide1155" inkscape:locked="false" orientation="1,0" position="105,103.5721"></sodipodi:guide>
	
		<sodipodi:guide  id="guide1159" inkscape:color="rgb(0,0,255)" inkscape:label="" inkscape:locked="false" orientation="1,0" position="145,19.979676">
		</sodipodi:guide>
	<sodipodi:guide  id="guide1161" inkscape:locked="false" orientation="0,1" position="63.789695,-1.3686142e-06"></sodipodi:guide>
	<sodipodi:guide  id="guide1163" inkscape:locked="false" orientation="1,0" position="0,74"></sodipodi:guide>
	<sodipodi:guide  id="guide1184" inkscape:locked="false" orientation="1,0" position="67.140101,125.61907"></sodipodi:guide>
	
		<sodipodi:guide  id="guide73" inkscape:color="rgb(0,0,255)" inkscape:label="" inkscape:locked="false" orientation="1,0" position="580,31.952388">
		</sodipodi:guide>
	
		<sodipodi:guide  id="guide75" inkscape:color="rgb(0,0,255)" inkscape:label="" inkscape:locked="false" orientation="0,1" position="73.789713,160">
		</sodipodi:guide>
	
		<sodipodi:guide  id="guide115" inkscape:color="rgb(0,0,255)" inkscape:label="" inkscape:locked="false" orientation="1,0" position="30,85">
		</sodipodi:guide>
</sodipodi:namedview>
<g id="g4285" transform="matrix(11.512843,0,0,11.51284,-1062.3103,-394.41039)">
	<g class="st0">
		<path d="M123.9,45.8c0.2-0.2,0.4-0.4,0.6-0.6c0.2-0.2,0.4-0.4,0.6-0.7c0.2-0.2,0.4-0.4,0.5-0.6c0.2-0.2,0.3-0.4,0.4-0.5h2.3
			c-0.5,0.5-0.9,1-1.3,1.5c-0.4,0.5-0.9,1-1.4,1.5c0.3,0.2,0.5,0.5,0.8,0.8c0.3,0.3,0.5,0.6,0.8,1c0.3,0.3,0.5,0.7,0.7,1
			c0.2,0.3,0.4,0.7,0.5,0.9h-2.2c-0.1-0.2-0.3-0.5-0.5-0.7c-0.2-0.3-0.4-0.5-0.6-0.8c-0.2-0.3-0.4-0.5-0.6-0.8
			c-0.2-0.2-0.4-0.5-0.6-0.6v2.9H122v-9.6l1.9-0.3V45.8z"/>
		<path d="M135.1,46.7c0,0.5-0.1,1-0.2,1.4c-0.2,0.4-0.4,0.8-0.7,1.1c-0.3,0.3-0.6,0.5-1,0.7c-0.4,0.2-0.9,0.3-1.4,0.3
			c-0.5,0-0.9-0.1-1.3-0.3c-0.4-0.2-0.7-0.4-1-0.7c-0.3-0.3-0.5-0.7-0.7-1.1c-0.2-0.4-0.2-0.9-0.2-1.4c0-0.5,0.1-1,0.2-1.4
			c0.2-0.4,0.4-0.8,0.7-1.1c0.3-0.3,0.6-0.5,1-0.7c0.4-0.2,0.8-0.3,1.3-0.3c0.5,0,0.9,0.1,1.3,0.3c0.4,0.2,0.7,0.4,1,0.7
			c0.3,0.3,0.5,0.7,0.7,1.1C135.1,45.7,135.1,46.2,135.1,46.7z M133.2,46.7c0-0.6-0.1-1-0.4-1.4c-0.2-0.3-0.6-0.5-1-0.5
			c-0.4,0-0.8,0.2-1,0.5c-0.2,0.3-0.4,0.8-0.4,1.4c0,0.6,0.1,1.1,0.4,1.4c0.2,0.3,0.6,0.5,1,0.5c0.4,0,0.8-0.2,1-0.5
			C133.1,47.8,133.2,47.3,133.2,46.7z"/>
		<path d="M140.7,45.1c-0.2,0-0.4-0.1-0.6-0.1c-0.2,0-0.5-0.1-0.7-0.1c-0.1,0-0.3,0-0.4,0c-0.2,0-0.3,0-0.4,0.1v5.1h-1.9v-6.3
			c0.3-0.1,0.7-0.2,1.2-0.3c0.5-0.1,1-0.2,1.5-0.2c0.1,0,0.2,0,0.4,0c0.1,0,0.3,0,0.4,0.1c0.1,0,0.3,0,0.4,0.1
			c0.1,0,0.3,0.1,0.4,0.1L140.7,45.1z"/>
		<path d="M142,43.6c0.3-0.1,0.7-0.2,1.2-0.3c0.5-0.1,1-0.1,1.6-0.1c0.6,0,1,0.1,1.4,0.2c0.4,0.1,0.7,0.4,0.9,0.6
			c0.2,0.3,0.4,0.6,0.5,1c0.1,0.4,0.1,0.8,0.1,1.2v3.8h-1.9v-3.6c0-0.6-0.1-1-0.2-1.3c-0.2-0.3-0.5-0.4-0.9-0.4c-0.1,0-0.3,0-0.4,0
			c-0.2,0-0.3,0-0.4,0v5.2H142V43.6z"/>
		<path d="M151.6,41.4c0,0.3-0.1,0.6-0.3,0.8c-0.2,0.2-0.5,0.3-0.8,0.3c-0.3,0-0.6-0.1-0.8-0.3c-0.2-0.2-0.3-0.5-0.3-0.8
			c0-0.3,0.1-0.6,0.3-0.8c0.2-0.2,0.5-0.3,0.8-0.3c0.3,0,0.6,0.1,0.8,0.3C151.5,40.8,151.6,41.1,151.6,41.4z M151.4,50.1h-1.9v-6.7
			h1.9V50.1z"/>
		<path d="M155.6,43.2c0.6,0,1,0.1,1.4,0.2c0.4,0.1,0.7,0.3,0.9,0.5c0.2,0.2,0.4,0.5,0.5,0.9c0.1,0.3,0.1,0.7,0.1,1.1v3.9
			c-0.3,0.1-0.6,0.1-1.1,0.2c-0.5,0.1-1.1,0.1-1.8,0.1c-0.4,0-0.8,0-1.2-0.1c-0.4-0.1-0.7-0.2-0.9-0.4c-0.3-0.2-0.5-0.4-0.6-0.7
			c-0.1-0.3-0.2-0.6-0.2-1c0-0.4,0.1-0.7,0.2-1c0.2-0.3,0.4-0.5,0.6-0.6c0.3-0.2,0.6-0.3,0.9-0.4c0.3-0.1,0.7-0.1,1.1-0.1
			c0.2,0,0.5,0,0.7,0c0.2,0,0.3,0,0.5,0.1v-0.2c0-0.3-0.1-0.6-0.3-0.8c-0.2-0.2-0.5-0.3-1-0.3c-0.3,0-0.6,0-1,0.1
			c-0.3,0-0.6,0.1-0.8,0.2l-0.2-1.5c0.1,0,0.2-0.1,0.4-0.1c0.2,0,0.3-0.1,0.5-0.1c0.2,0,0.4-0.1,0.6-0.1
			C155.1,43.2,155.4,43.2,155.6,43.2z M155.7,48.7c0.2,0,0.4,0,0.5,0c0.2,0,0.3,0,0.4,0v-1.4c-0.1,0-0.2,0-0.3-0.1
			c-0.2,0-0.3,0-0.4,0c-0.2,0-0.3,0-0.5,0c-0.2,0-0.3,0.1-0.4,0.1c-0.1,0.1-0.2,0.1-0.3,0.2c-0.1,0.1-0.1,0.2-0.1,0.4
			c0,0.3,0.1,0.5,0.3,0.6C155.1,48.7,155.4,48.7,155.7,48.7z"/>
	</g>
	<g id="flowRoot280" transform="matrix(0.08685954,0,0,0.08685954,86.11026,30.079963)">
	</g>
</g>
<g>
	<path id="Path_228_1_" d="M304.9,103.6l-52.7-30.1l-52.7,30.1v60.1l52.7,30.1l52.7-30.1V103.6z"/>
	<g>
		<path id="Path_229_1_" class="st1" d="M256.8,174.4v-39.2l34-19.6v39.2L256.8,174.4z"/>
		<path id="Path_230_1_" class="st2" d="M213.4,115.6v39.2l34,19.6v-39.2L213.4,115.6z"/>
		<path id="Path_231_1_" class="st3" d="M217.3,108.4l34.5,19.4l34.5-19.4l-34.5-19.4L217.3,108.4z"/>
	</g>
</g>
<sodipodi:namedview  bordercolor="#666666" borderopacity="1" gridtolerance="10" guidetolerance="10" id="namedview4162" inkscape:current-layer="g4285" inkscape:cx="256.09235" inkscape:cy="-4.3199171" inkscape:guide-bbox="true" inkscape:measure-end="63.1753,74" inkscape:measure-start="5.39155e-06,112.499" inkscape:pageopacity="0" inkscape:pageshadow="2" inkscape:snap-text-baseline="true" inkscape:window-height="713" inkscape:window-maximized="1" inkscape:window-width="1299" inkscape:window-x="67" inkscape:window-y="27" inkscape:zoom="1.4142136" objecttolerance="10" pagecolor="#ffffff" showgrid="false" showguides="true">
	
		<sodipodi:guide  id="guide1151" inkscape:color="rgb(0,0,255)" inkscape:label="" inkscape:locked="false" orientation="0,1" position="188.0904,85">
		</sodipodi:guide>
	
		<sodipodi:guide  id="guide1153" inkscape:color="rgb(0,0,255)" inkscape:label="" inkscape:locked="false" orientation="1,0" position="610,19.979676">
		</sodipodi:guide>
	<sodipodi:guide  id="guide1155" inkscape:locked="false" orientation="1,0" position="105,103.5721"></sodipodi:guide>
	
		<sodipodi:guide  id="guide1159" inkscape:color="rgb(0,0,255)" inkscape:label="" inkscape:locked="false" orientation="1,0" position="145,19.979676">
		</sodipodi:guide>
	<sodipodi:guide  id="guide1161" inkscape:locked="false" orientation="0,1" position="63.789695,-1.3686142e-06"></sodipodi:guide>
	<sodipodi:guide  id="guide1163" inkscape:locked="false" orientation="1,0" position="0,74"></sodipodi:guide>
	<sodipodi:guide  id="guide1184" inkscape:locked="false" orientation="1,0" position="67.140101,125.61907"></sodipodi:guide>
	
		<sodipodi:guide  id="guide73" inkscape:color="rgb(0,0,255)" inkscape:label="" inkscape:locked="false" orientation="1,0" position="580,31.952388">
		</sodipodi:guide>
	
		<sodipodi:guide  id="guide75" inkscape:color="rgb(0,0,255)" inkscape:label="" inkscape:locked="false" orientation="0,1" position="73.789713,160">
		</sodipodi:guide>
	
		<sodipodi:guide  id="guide115" inkscape:color="rgb(0,0,255)" inkscape:label="" inkscape:locked="false" orientation="1,0" position="30,85">
		</sodipodi:guide>
</sodipodi:namedview>
</svg>
