<?xml version="1.0" encoding="UTF-8" standalone="no"?>
<!-- Generator: Adobe Illustrator 22.1.0, SVG Export Plug-In . SVG Version: 6.00 Build 0)  -->

<svg
   xmlns:dc="http://purl.org/dc/elements/1.1/"
   xmlns:cc="http://creativecommons.org/ns#"
   xmlns:rdf="http://www.w3.org/1999/02/22-rdf-syntax-ns#"
   xmlns:svg="http://www.w3.org/2000/svg"
   xmlns="http://www.w3.org/2000/svg"
   xmlns:sodipodi="http://sodipodi.sourceforge.net/DTD/sodipodi-0.dtd"
   xmlns:inkscape="http://www.inkscape.org/namespaces/inkscape"
   version="1.1"
   id="Layer_1"
   x="0px"
   y="0px"
   viewBox="0 0 180 54.999999"
   xml:space="preserve"
   sodipodi:docname="torchgeometry_logo.svg"
   width="180"
   height="55"
   inkscape:version="0.92.3 (2405546, 2018-03-11)"><metadata
   id="metadata4166"><rdf:RDF><cc:Work
       rdf:about=""><dc:format>image/svg+xml</dc:format><dc:type
         rdf:resource="http://purl.org/dc/dcmitype/StillImage" /><dc:title /></cc:Work></rdf:RDF></metadata><defs
   id="defs4164"><clipPath
     id="clipPath20"
     clipPathUnits="userSpaceOnUse"><path
       id="path22"
       d="M 0,256 H 787.274 V 0 H 0 Z"
       inkscape:connector-curvature="0" /></clipPath></defs><sodipodi:namedview
   pagecolor="#ffffff"
   bordercolor="#666666"
   borderopacity="1"
   objecttolerance="10"
   gridtolerance="10"
   guidetolerance="10"
   inkscape:pageopacity="0"
   inkscape:pageshadow="2"
   inkscape:window-width="1299"
   inkscape:window-height="713"
   id="namedview4162"
   showgrid="false"
   inkscape:snap-text-baseline="true"
   inkscape:zoom="4.4566852"
   inkscape:cx="61.913619"
   inkscape:cy="3.5313368"
   inkscape:window-x="67"
   inkscape:window-y="27"
   inkscape:window-maximized="1"
   inkscape:current-layer="g4169" />
<style
   type="text/css"
   id="style4135">
	.st0{fill:#EE4C2C;}
	.st1{fill:#252525;}
</style>

<g
   id="g4159"
   transform="translate(-2,2.7999972)">
	<g
   id="g4157">
		<path
   class="st1"
   d="M 62.6,20 H 59 v 9.3 H 56.3 V 2.9 c 0,0 6.3,0 6.6,0 7,0 10.3,3.4 10.3,8.3 0,5.8 -4.1,8.7 -10.6,8.8 z M 62.8,5.4 c -0.3,0 -3.9,0 -3.9,0 v 12.1 l 3.8,-0.1 c 5,-0.1 7.7,-2.1 7.7,-6.2 0,-3.7 -2.6,-5.8 -7.6,-5.8 z"
   id="path4143"
   inkscape:connector-curvature="0"
   style="fill:#252525" />
		<path
   class="st1"
   d="m 85.4,29.2 -1.6,4.2 c -1.8,4.7 -3.6,6.1 -6.3,6.1 -1.5,0 -2.6,-0.4 -3.8,-0.9 l 0.8,-2.4 c 0.9,0.5 1.9,0.8 3,0.8 1.5,0 2.6,-0.8 4,-4.5 L 82.8,29.1 75.3,10 h 2.8 l 6.1,16 6,-16 h 2.7 z"
   id="path4145"
   inkscape:connector-curvature="0"
   style="fill:#252525" />
		<path
   class="st1"
   d="M 101.9,5.5 V 29.4 H 99.2 V 5.5 H 89.9 V 2.9 h 21.3 v 2.5 h -9.3 z"
   id="path4147"
   inkscape:connector-curvature="0"
   style="fill:#252525" />
		<path
   class="st1"
   d="m 118.8,29.9 c -5.4,0 -9.4,-4 -9.4,-10.2 0,-6.2 4.1,-10.3 9.6,-10.3 5.4,0 9.3,4 9.3,10.2 0,6.2 -4.1,10.3 -9.5,10.3 z m 0.1,-18.1 c -4.1,0 -6.8,3.3 -6.8,7.8 0,4.7 2.8,7.9 6.9,7.9 4.1,0 6.8,-3.3 6.8,-7.8 0,-4.7 -2.8,-7.9 -6.9,-7.9 z"
   id="path4149"
   inkscape:connector-curvature="0"
   style="fill:#252525" />
		<path
   class="st1"
   d="m 135,29.4 h -2.6 V 10 L 135,9.5 v 4.1 c 1.3,-2.5 3.2,-4.1 5.7,-4.1 1.3,0 2.5,0.4 3.4,0.9 l -0.7,2.5 c -0.8,-0.5 -1.9,-0.8 -3,-0.8 -2,0 -3.9,1.5 -5.5,5 v 12.3 z"
   id="path4151"
   inkscape:connector-curvature="0"
   style="fill:#252525" />
		<path
   class="st1"
   d="m 154.4,29.9 c -5.8,0 -9.5,-4.2 -9.5,-10.2 0,-6.1 4,-10.3 9.5,-10.3 2.4,0 4.4,0.6 6.1,1.7 l -0.7,2.4 c -1.5,-1 -3.3,-1.6 -5.4,-1.6 -4.2,0 -6.8,3.1 -6.8,7.7 0,4.7 2.8,7.8 6.9,7.8 1.9,0 3.9,-0.6 5.4,-1.6 l 0.5,2.4 c -1.7,1.1 -3.8,1.7 -6,1.7 z"
   id="path4153"
   inkscape:connector-curvature="0"
   style="fill:#252525" />
		<path
   class="st1"
   d="M 176.7,29.4 V 16.9 c 0,-3.4 -1.4,-4.9 -4.1,-4.9 -2.2,0 -4.4,1.1 -6,2.8 V 29.5 H 164 V 0.9 l 2.6,-0.5 c 0,0 0,12.1 0,12.2 2,-2 4.6,-3.1 6.7,-3.1 3.8,0 6.1,2.4 6.1,6.6 v 13.3 z"
   id="path4155"
   inkscape:connector-curvature="0"
   style="fill:#252525" />
	</g>
</g>
<g
   id="g4169"
   transform="matrix(0.03835147,0,0,-0.03835147,57.507716,62.912837)"><g
     id="g12"
     transform="matrix(4.6782157,0,0,4.6782157,-1377.3033,1199.6852)"><path
       inkscape:connector-curvature="0"
       d="M 0,0 101.079,58.924 204.117,-0.001 V -117.847 L 102.062,-176.764 0,-117.845 Z"
       style="fill:#000000;fill-opacity:1;fill-rule:nonzero;stroke:none"
       id="path14" /></g><g
     id="g16"
     transform="matrix(4.6782157,0,0,4.6782157,-1471.7712,325.23122)"
     style="fill:none;fill-opacity:1;stroke:#a0b4c8;stroke-opacity:1"><g
       id="g18"
       clip-path="url(#clipPath20)"
       transform="translate(6.1133073e-6,2.1524702e-6)"
       style="fill:none;fill-opacity:1;stroke:#a0b4c8;stroke-opacity:1"><g
         id="g24"
         transform="translate(165.1074,186.9204)"
         style="fill:none;fill-opacity:1;stroke:#a0b4c8;stroke-opacity:1"><path
           inkscape:connector-curvature="0"
           d="M -144.91425,-6.643053e-8 -43.83525,58.924 59.20275,-0.00100007 V -117.847 l -102.055,-58.917 -102.062,58.919 z"
           style="fill:none;fill-opacity:1;stroke:#a0b4c8;stroke-width:15.70647526;stroke-linecap:butt;stroke-linejoin:miter;stroke-miterlimit:10;stroke-dasharray:none;stroke-opacity:1"
           id="path26" /></g></g></g><g
     id="g28"
     transform="matrix(4.6782157,0,0,4.6782157,-869.90217,908.90272)"><path
       inkscape:connector-curvature="0"
       d="M 0,0 56.912,32.491 56.584,-32.844 0,-65.589 Z"
       style="fill:#2a6d9b;fill-opacity:1;fill-rule:nonzero;stroke:none"
       id="path30" /></g><g
     id="g32"
     transform="matrix(4.6782157,0,0,4.6782157,-1167.5349,1107.5052)"><path
       inkscape:connector-curvature="0"
       d="M 0,0 57.105,33.143 115.157,0 57.358,-32.645 Z"
       style="fill:#c1c1c1;fill-opacity:1;fill-rule:nonzero;stroke:none"
       id="path34" /></g></g><g
   id="g4285"
   transform="matrix(1.1078574,0,0,1.1078574,-23.514991,-0.90139192)"><text
   xml:space="preserve"
   style="font-style:normal;font-variant:normal;font-weight:normal;font-stretch:normal;font-size:16px;line-height:1.25;font-family:sans-serif;-inkscape-font-specification:'sans-serif, Normal';font-variant-ligatures:discretionary-ligatures;font-variant-caps:normal;font-variant-numeric:normal;font-feature-settings:normal;text-align:start;letter-spacing:0px;word-spacing:0px;writing-mode:lr-tb;text-anchor:start;fill:#252525;fill-opacity:1;stroke:#000000;stroke-width:0;stroke-miterlimit:4;stroke-dasharray:none;stroke-opacity:1"
   x="103.84724"
   y="45.551811"
   id="text5094"><tspan
     sodipodi:role="line"
     id="tspan5092"
     x="103.84724"
     y="45.551811"
     style="font-style:normal;font-variant:normal;font-weight:normal;font-stretch:normal;font-size:16px;font-family:sans-serif;-inkscape-font-specification:'sans-serif, Normal';font-variant-ligatures:discretionary-ligatures;font-variant-caps:normal;font-variant-numeric:normal;font-feature-settings:normal;text-align:start;writing-mode:lr-tb;text-anchor:start;fill:#252525;fill-opacity:1;stroke:#000000;stroke-width:0;stroke-miterlimit:4;stroke-dasharray:none;stroke-opacity:1">geometry</tspan></text>



</g></svg>